<svg width="16" height="12" viewBox="0 0 16 12" fill="none" xmlns="http://www.w3.org/2000/svg">
<path d="M6.31312 8.87233L3.12745 5.68564L3.12739 5.68559C2.928 5.4862 2.65757 5.37418 2.37559 5.37418C2.09361 5.37418 1.82318 5.4862 1.62379 5.68559C1.42439 5.88498 1.31238 6.15541 1.31238 6.43739C1.31238 6.71937 1.42439 6.9898 1.62378 7.18919L5.56084 11.1262L6.31312 8.87233ZM6.31312 8.87233L13.4358 1.74854C13.5345 1.64959 13.6518 1.57108 13.7809 1.51752C13.91 1.46396 14.0483 1.43639 14.1881 1.43639C14.3278 1.43639 14.4662 1.46396 14.5953 1.51752C14.7242 1.571 14.8413 1.64935 14.9399 1.74809C15.0386 1.84669 15.117 1.96378 15.1705 2.09267C15.224 2.22176 15.2516 2.36014 15.2516 2.49989C15.2516 2.63964 15.224 2.77803 15.1705 2.90711C15.117 3.036 15.0386 3.15309 14.9399 3.2517L6.31312 8.87233ZM5.90587 11.3573L5.90586 11.3573C5.77698 11.3038 5.65989 11.2254 5.56129 11.1267L5.90587 11.3573ZM5.90587 11.3573C6.03495 11.4108 6.17333 11.4384 6.31309 11.4384C6.45284 11.4384 6.59123 11.4108 6.72031 11.3573C6.8492 11.3038 6.96629 11.2254 7.06489 11.1267L5.90587 11.3573ZM7.06534 11.1263L14.9394 3.25214L7.06534 11.1263Z" fill="white" stroke="white"/>
</svg>
